<svg xmlns="http://www.w3.org/2000/svg" viewBox="0 0 44 81"><title>items</title><g id="Layer_1" data-name="Layer 1"><polygon points="33.79 69.6 33.79 73.82 12.7 69.6 12.7 65.38 33.79 69.6"/><rect x="25.36" y="9.4" width="4.22" height="19.17"/><rect x="16.92" y="9.4" width="11.12" height="4.22"/><rect x="16.92" y="9.4" width="4.22" height="18.79"/><path d="M12.7,36.24V69.6h4.22V44.68A10.55,10.55,0,0,1,12.7,36.24Z"/><path d="M29.57,44.68V69.6l4.22,4.22V36.24A10.52,10.52,0,0,1,29.57,44.68Z"/><path d="M23.25,25.7a10.53,10.53,0,0,0-9.49,5.94h19a10.54,10.54,0,0,0-9.49-5.94Z"/><path d="M15.2,39.86a8.84,8.84,0,0,1-.77-3.62,8.69,8.69,0,0,1,.48-2.87h.29Z"/><path d="M16.92,31.64H13.76a10.43,10.43,0,0,0-1.06,4.6,10.55,10.55,0,0,0,4.22,8.44v-13Z"/><path d="M31.3,33.37h.29a8.69,8.69,0,0,1,.48,2.87,8.84,8.84,0,0,1-.77,3.62Z"/><path d="M32.74,31.64H29.57v13a10.57,10.57,0,0,0,3.17-13Z"/></g></svg>