<svg xmlns="http://www.w3.org/2000/svg" viewBox="0 0 300 80.75"><title>MOBMOP-logo</title><g id="Layer_5" data-name="Layer 5"><polygon points="81.54 68.5 76.19 69.75 76.19 16.34 81.54 15.74 81.54 68.5"/><polygon points="102.9 64.41 97.56 65.38 97.56 12.62 102.9 11 102.9 64.41"/><polygon points="121.84 65.38 116.5 64.41 116.5 11 121.84 12.3 121.84 65.38"/><polygon points="143.2 69.75 137.86 68.5 137.86 36.97 143.2 37.91 143.2 69.75"/><polygon points="137.86 36.66 132.52 35.72 132.52 14.49 137.86 15.43 137.86 36.66"/><polygon points="229.15 65.38 223.81 64.41 223.81 11 229.15 12.3 229.15 65.38"/><polygon points="250.51 69.75 245.17 68.5 245.17 15.43 250.51 16.34 250.51 69.75"/><polygon points="267.99 69.75 262.65 69.75 262.65 16.34 267.99 15.43 267.99 69.75"/><polygon points="290.81 37.71 285.47 38.53 285.47 11.99 290.81 11 290.81 37.71"/><polygon points="9.19 11 9.19 64.41 14.53 64.95 14.53 11.68 9.19 11"/><polygon points="33.47 13.55 33.47 66.84 38.81 67.37 38.81 13.98 33.47 13.55"/><polygon points="57.26 16.05 57.26 69.22 62.6 69.75 62.6 16.34 57.26 16.05"/><polygon points="156.8 16.34 156.8 69.75 162.14 69.22 162.14 16.05 156.8 16.34"/><polygon points="180.59 14.12 180.59 67.37 185.93 66.84 185.93 13.55 180.59 14.12"/><polygon points="204.87 11.68 204.87 64.95 210.21 64.41 210.21 11 204.87 11.68"/><polygon points="62.6 16.34 62.6 21.68 9.19 16.34 9.19 11 62.6 16.34"/><polygon points="210.21 11 210.21 16.34 156.8 21.68 156.8 16.34 210.21 11"/><polygon points="102.9 11 102.9 16.34 76.19 21.68 76.19 16.34 102.9 11"/><polygon points="102.9 59.07 102.9 64.41 76.19 69.75 76.19 64.41 102.9 59.07"/><polygon points="250.51 16.34 250.51 21.68 223.81 16.34 223.81 11 250.51 16.34"/><polygon points="250.51 64.41 250.51 69.75 223.81 64.41 223.81 59.07 250.51 64.41"/><polygon points="137.86 15.37 137.86 20.71 116.5 16.34 116.5 11 137.86 15.37"/><polygon points="143.2 37.71 143.2 43.05 116.5 37.71 116.5 32.37 143.2 37.71"/><polygon points="290.81 11 290.81 16.34 262.65 21.68 262.65 16.34 290.81 11"/><polygon points="290.81 32.37 290.81 37.71 262.65 43.05 262.65 37.71 290.81 32.37"/><polygon points="143.2 64.41 143.2 69.75 116.5 64.41 116.5 59.07 143.2 64.41"/></g></svg>