<svg xmlns="http://www.w3.org/2000/svg" viewBox="0 0 97 91"><defs><style>.cls-1{fill:#666;}.cls-1,.cls-2{stroke:#000;stroke-miterlimit:10;stroke-width:3.45px;}.cls-2{fill:none;}</style></defs><title>items</title><g id="Layer_1" data-name="Layer 1"><path class="cls-1" d="M48.12,12.33A32.83,32.83,0,1,0,81,45.16,32.83,32.83,0,0,0,48.12,12.33Zm0,50.66A17.83,17.83,0,1,1,66,45.16,17.83,17.83,0,0,1,48.12,63Z"/><line class="cls-2" x1="46.39" y1="8.54" x2="46.77" y2="11.61"/><line class="cls-2" x1="52.91" y1="8.54" x2="52.14" y2="12.37"/><line class="cls-2" x1="60.19" y1="10.46" x2="59.43" y2="13.91"/><line class="cls-2" x1="69.4" y1="14.29" x2="67.48" y2="17.36"/><line class="cls-2" x1="74.76" y1="18.89" x2="71.7" y2="21.19"/><line class="cls-2" x1="80.13" y1="26.18" x2="77.06" y2="27.71"/><line class="cls-2" x1="80.13" y1="34.61" x2="82.43" y2="34.61"/><line class="cls-2" x1="81.28" y1="40.75" x2="83.58" y2="40.75"/><line class="cls-2" x1="81.28" y1="46.88" x2="83.97" y2="47.65"/><line class="cls-2" x1="80.9" y1="54.93" x2="82.43" y2="55.7"/><line class="cls-2" x1="77.45" y1="61.84" x2="79.37" y2="62.22"/><line class="cls-2" x1="74.38" y1="66.05" x2="75.91" y2="67.97"/><line class="cls-2" x1="70.93" y1="69.12" x2="72.46" y2="71.42"/><line class="cls-2" x1="65.56" y1="73.34" x2="67.48" y2="76.02"/><line class="cls-2" x1="61.34" y1="76.02" x2="62.11" y2="79.09"/><line class="cls-2" x1="53.68" y1="78.71" x2="54.44" y2="81.01"/><line class="cls-2" x1="46.39" y1="77.94" x2="46.39" y2="81.77"/><line class="cls-2" x1="40.26" y1="77.94" x2="38.34" y2="80.24"/><line class="cls-2" x1="33.74" y1="75.26" x2="31.44" y2="77.94"/><line class="cls-2" x1="27.6" y1="71.42" x2="26.07" y2="73.34"/><line class="cls-2" x1="22.23" y1="66.05" x2="19.17" y2="67.2"/><line class="cls-2" x1="18.02" y1="59.54" x2="14.57" y2="60.69"/><line class="cls-2" x1="15.72" y1="52.25" x2="12.27" y2="52.63"/><line class="cls-2" x1="14.18" y1="44.58" x2="11.5" y2="44.58"/><line class="cls-2" x1="15.72" y1="38.83" x2="12.65" y2="37.68"/><line class="cls-2" x1="17.25" y1="32.31" x2="14.95" y2="31.93"/><line class="cls-2" x1="19.93" y1="27.71" x2="17.25" y2="26.56"/><line class="cls-2" x1="23.77" y1="23.49" x2="21.47" y2="21.96"/><line class="cls-2" x1="25.69" y1="20.43" x2="24.54" y2="17.74"/><line class="cls-2" x1="30.67" y1="16.98" x2="28.75" y2="14.67"/><line class="cls-2" x1="36.04" y1="13.91" x2="35.27" y2="11.61"/></g></svg>