<svg xmlns="http://www.w3.org/2000/svg" viewBox="0 0 116 81"><defs><style>.cls-1{fill:#ccc;}</style></defs><title>items</title><g id="Layer_1" data-name="Layer 1"><rect class="cls-1" x="12.92" y="13.31" width="88.57" height="39.49"/><rect x="11" y="11.01" width="92.41" height="4.22"/><rect x="11" y="51.26" width="92.41" height="4.22"/><rect x="19.05" y="57.02" width="20.32" height="4.22"/><rect x="11" y="62.77" width="92.41" height="4.22"/><rect x="11" y="13.31" width="4.22" height="51.38"/><rect x="99.19" y="13.31" width="4.22" height="51.38"/><rect x="91.9" y="63.15" width="4.22" height="5.75"/><rect x="18.29" y="63.15" width="4.22" height="5.75"/><rect x="88.45" y="17.52" width="4.22" height="10.35" transform="translate(10.47 70.68) rotate(-45)"/><rect x="85.38" y="20.59" width="10.35" height="4.22" transform="translate(10.47 70.68) rotate(-45)"/><rect x="33.62" y="17.52" width="4.22" height="10.35" transform="translate(-5.59 31.91) rotate(-45)"/><rect x="30.55" y="20.59" width="10.35" height="4.22" transform="translate(-5.59 31.91) rotate(-45)"/></g></svg>